<?xml version="1.0" encoding="iso-8859-1"?>
<!-- Uploaded to: SVG Repo, www.svgrepo.com, Generator: SVG Repo Mixer Tools -->
<svg height="800px" width="800px" version="1.1" id="Layer_1" xmlns="http://www.w3.org/2000/svg" xmlns:xlink="http://www.w3.org/1999/xlink" 
	 viewBox="0 0 511.999 511.999" xml:space="preserve">
<g>
	<path style="fill:#EFF2FA;" d="M376.092,159.979c-0.028-13.306-10.832-24.072-24.137-24.053l-311.96,0.447
		c-17.606,0.033-31.984,14.465-31.951,32.071l0.571,304.102c0.033,17.606,14.465,31.984,32.071,31.951l304.102-0.571
		c17.606-0.033,31.984-14.465,31.951-32.071L376.092,159.979z"/>
	<path style="fill:#EFF2FA;" d="M252.458,317.572c-0.163,0.164-0.358,0.294-0.573,0.381l-47.034,19.117
		c-3.589,1.458-7.17-2.109-5.725-5.704l18.94-47.106c0.086-0.215,0.215-0.41,0.379-0.574l0.704-0.706l143.849-144.391
		c-3.311-1.704-7.063-2.669-11.044-2.663l-311.96,0.447c-17.606,0.033-31.984,14.465-31.951,32.071l0.571,304.103
		c0.033,17.606,14.465,31.984,32.071,31.951l304.102-0.571c17.606-0.033,31.984-14.465,31.951-32.071l-0.579-278.453
		l-123.176,123.64L252.458,317.572z"/>
</g>
<path style="fill:#D7DEED;" d="M362.998,138.589L219.15,282.98l-0.704,0.706c-0.163,0.164-0.292,0.359-0.379,0.574l-18.94,47.106
	c-1.445,3.595,2.136,7.162,5.725,5.704l47.034-19.117c0.215-0.087,0.409-0.217,0.573-0.381l0.526-0.528l123.178-123.641
	l-0.069-33.423C376.073,150.653,370.756,142.581,362.998,138.589z"/>
<polygon style="fill:#FFFFFF;" points="206.369,272.106 183.437,329.138 240.382,305.992 241.156,305.216 207.321,271.152 "/>
<path style="fill:#EFF2FA;" d="M496.955,48.453c9.36-9.392,9.332-24.592-0.064-33.95c-9.388-9.36-24.596-9.332-33.949,0.064
	l-7.972,8.002l33.98,33.919L496.955,48.453z"/>
<polygon style="fill:#FFD782;" points="454.971,22.57 207.321,271.152 241.156,305.216 488.949,56.488 "/>
<polygon style="fill:#FFFFFF;" points="184.311,328.784 240.382,305.992 241.156,305.216 224.573,288.521 "/>
<polygon style="fill:#D7DEED;" points="207.321,271.152 206.369,272.106 183.437,329.138 184.311,328.784 224.573,288.521 "/>
<path style="fill:#EFF2FA;" d="M472.763,40.331l16.186,16.157l8.006-8.036c9.074-9.105,9.297-23.652,0.744-33.058L472.763,40.331z"
	/>
<path style="fill:#D7DEED;" d="M497.699,15.395c-0.27-0.297-0.521-0.604-0.808-0.89c-9.388-9.36-24.596-9.332-33.949,0.064
	l-7.972,8.002l17.793,17.761L497.699,15.395z"/>
<polygon style="fill:#FFC36E;" points="472.763,40.331 454.971,22.57 207.321,271.152 224.573,288.521 "/>
<polygon style="fill:#FFD782;" points="224.573,288.521 241.156,305.216 488.949,56.488 472.763,40.331 "/>
<path d="M376.259,208.266c-0.005,0-0.01,0-0.015,0c-4.143,0.008-7.497,3.373-7.489,7.517l0.481,256.087
	c0.012,6.511-2.535,12.66-7.173,17.316c-4.638,4.656-10.778,7.226-17.289,7.238l-304.103,0.571c-0.016,0-0.031,0-0.047,0
	c-6.493,0-12.625-2.546-17.269-7.173c-4.656-4.638-7.226-10.778-7.238-17.289l-0.571-304.103c-0.012-6.511,2.535-12.66,7.173-17.316
	c4.638-4.656,10.778-7.226,17.289-7.238l256.087-0.481c4.143-0.008,7.497-3.373,7.489-7.517c-0.008-4.138-3.365-7.489-7.503-7.489
	c-0.005,0-0.01,0-0.015,0L39.979,128.87c-10.52,0.02-20.424,4.158-27.89,11.653S0.52,157.939,0.54,168.457l0.571,304.103
	c0.02,10.52,4.158,20.424,11.653,27.89c7.478,7.45,17.368,11.549,27.859,11.548c0.025,0,0.051,0,0.076,0l304.103-0.571
	c10.52-0.02,20.424-4.158,27.891-11.653c7.467-7.495,11.568-17.416,11.548-27.934l-0.481-256.087
	C383.753,211.616,380.396,208.266,376.259,208.266z"/>
<path d="M502.188,9.191C496.244,3.264,488.345,0,479.948,0c-8.442,0-16.37,3.294-22.321,9.273L201.054,266.812
	c-0.71,0.713-1.27,1.563-1.647,2.497l-22.932,57.031c-1.123,2.794-0.467,5.988,1.666,8.114c1.434,1.428,3.348,2.188,5.297,2.188
	c0.95,0,1.91-0.181,2.824-0.552l56.944-23.146c0.932-0.379,1.78-0.941,2.49-1.655l256.572-257.54
	c5.942-5.962,9.206-13.881,9.19-22.299C511.443,23.034,508.15,15.128,502.188,9.191z M241.329,294.411l-23.383-23.295
	l237.028-237.92l23.383,23.295L241.329,294.411z M209.657,284.039l18.779,18.709l-31.442,12.78L209.657,284.039z M491.64,43.158
	l-2.693,2.703l-23.383-23.295l2.695-2.705c3.117-3.131,7.268-4.856,11.689-4.856c4.397,0,8.533,1.709,11.649,4.816
	c3.124,3.11,4.849,7.251,4.857,11.659C496.462,35.887,494.752,40.035,491.64,43.158z"/>
<path d="M239.683,200.02c-0.008-4.139-3.365-7.489-7.503-7.489c-0.005,0-0.01,0-0.015,0l-160.054,0.301
	c-4.143,0.008-7.497,3.373-7.489,7.517c0.008,4.139,3.365,7.489,7.503,7.489c0.005,0,0.01,0,0.015,0l160.054-0.301
	C236.337,207.529,239.691,204.163,239.683,200.02z"/>
<path d="M199.744,240.109c-0.008-4.138-3.365-7.489-7.503-7.489c-0.005,0-0.01,0-0.015,0l-120.041,0.226
	c-4.143,0.008-7.497,3.373-7.489,7.517c0.008,4.138,3.365,7.489,7.503,7.489c0.005,0,0.01,0,0.015,0l120.041-0.226
	C196.4,247.617,199.752,244.252,199.744,240.109z"/>
<path d="M168.309,272.679c-0.005,0-0.01,0-0.015,0l-96.033,0.181c-4.143,0.008-7.497,3.373-7.489,7.517
	c0.008,4.138,3.365,7.489,7.503,7.489c0.005,0,0.01,0,0.015,0l96.033-0.181c4.143-0.008,7.497-3.373,7.489-7.517
	C175.804,276.029,172.446,272.679,168.309,272.679z"/>
<path d="M72.366,327.877l80.027-0.15c4.143-0.008,7.497-3.373,7.489-7.517c-0.008-4.139-3.365-7.489-7.503-7.489
	c-0.005,0-0.01,0-0.015,0l-80.027,0.15c-4.143,0.008-7.497,3.373-7.489,7.517c0.008,4.139,3.365,7.489,7.503,7.489
	C72.357,327.877,72.362,327.877,72.366,327.877z"/>
<path d="M264.917,320.014c0.008,4.139,3.365,7.489,7.503,7.489c0.005,0,0.01,0,0.015,0l40.014-0.075
	c4.143-0.008,7.497-3.373,7.489-7.517c-0.008-4.139-3.365-7.489-7.503-7.489c-0.005,0-0.01,0-0.015,0l-40.014,0.075
	C268.261,312.504,264.909,315.87,264.917,320.014z"/>
<path d="M317.662,285.212c1.4-1.39,2.201-3.321,2.201-5.302c0-1.971-0.8-3.911-2.201-5.302c-1.4-1.4-3.331-2.201-5.302-2.201
	c-1.981,0-3.911,0.8-5.312,2.201c-1.39,1.391-2.191,3.331-2.191,5.302c0,1.981,0.8,3.911,2.191,5.302
	c1.4,1.4,3.331,2.201,5.312,2.201C314.331,287.413,316.262,286.612,317.662,285.212z"/>
<path d="M64.924,360.402c0.008,4.138,3.365,7.489,7.503,7.489c0.005,0,0.01,0,0.015,0l240.082-0.451
	c4.143-0.008,7.497-3.373,7.489-7.517c-0.008-4.138-3.365-7.489-7.503-7.489c-0.005,0-0.01,0-0.015,0l-240.082,0.451
	C68.269,352.894,64.917,356.259,64.924,360.402z"/>
<path d="M312.584,392.448c-0.005,0-0.01,0-0.015,0L72.488,392.9c-4.143,0.008-7.497,3.373-7.489,7.517
	c0.008,4.138,3.365,7.489,7.503,7.489c0.005,0,0.01,0,0.015,0l240.082-0.451c4.143-0.008,7.497-3.373,7.489-7.517
	C320.078,395.799,316.721,392.448,312.584,392.448z"/>
<path d="M312.644,432.462l-240.082,0.451c-4.143,0.008-7.497,3.373-7.489,7.517c0.008,4.138,3.365,7.489,7.503,7.489
	c0.005,0,0.01,0,0.015,0l240.082-0.451c4.143-0.008,7.497-3.373,7.489-7.517c-0.008-4.138-3.365-7.489-7.503-7.489
	C312.654,432.462,312.649,432.462,312.644,432.462z"/>
</svg>